HIERARCHY
ROOT joint_Root
{
	OFFSET 0.0 0.0 0.0
	CHANNELS 6 Xposition Yposition Zposition Zrotation Xrotation Yrotation 
	JOINT Hips
	{
		OFFSET 4.5925 91.4895 -427.239
		CHANNELS 6 Xposition Yposition Zposition Zrotation Xrotation Yrotation 
		JOINT Spine
		{
			OFFSET 15.7357 0.0 0.0
			CHANNELS 6 Xposition Yposition Zposition Zrotation Xrotation Yrotation 
			JOINT Chest
			{
				OFFSET 8.98455 -0.406207 0.0
				CHANNELS 6 Xposition Yposition Zposition Zrotation Xrotation Yrotation 
				JOINT Neck
				{
					OFFSET 16.3773 0.0 0.0
					CHANNELS 6 Xposition Yposition Zposition Zrotation Xrotation Yrotation 
					JOINT Head
					{
						OFFSET 6.45672 0.0 0.0
						CHANNELS 6 Xposition Yposition Zposition Zrotation Xrotation Yrotation 
						End Site
						{
							OFFSET 0.0 0.0 0.0
						}
					}
				}
				JOINT Shoulder_L
				{
					OFFSET 12.9942 -0.242716 4.98039
					CHANNELS 6 Xposition Yposition Zposition Zrotation Xrotation Yrotation 
					JOINT UpperArm_L
					{
						OFFSET 5.34809 0.0 0.0
						CHANNELS 6 Xposition Yposition Zposition Zrotation Xrotation Yrotation 
						JOINT LowerArm_L
						{
							OFFSET 24.3286 1.87007e-05 0.0
							CHANNELS 6 Xposition Yposition Zposition Zrotation Xrotation Yrotation 
							JOINT Hand_L
							{
								OFFSET 22.2916 0.0 0.0
								CHANNELS 6 Xposition Yposition Zposition Zrotation Xrotation Yrotation 
								End Site
								{
									OFFSET 0.0 0.0 0.0
								}
							}
						}
					}
				}
				JOINT Shoulder_R
				{
					OFFSET 12.9945 -0.242716 -4.98039
					CHANNELS 6 Xposition Yposition Zposition Zrotation Xrotation Yrotation 
					JOINT UpperArm_R
					{
						OFFSET -5.34813 0.0 0.0
						CHANNELS 6 Xposition Yposition Zposition Zrotation Xrotation Yrotation 
						JOINT LowerArm_R
						{
							OFFSET -24.3289 0.000322201 0.0
							CHANNELS 6 Xposition Yposition Zposition Zrotation Xrotation Yrotation 
							JOINT Hand_R
							{
								OFFSET -22.2915 -0.000108084 0.0
								CHANNELS 6 Xposition Yposition Zposition Zrotation Xrotation Yrotation 
								End Site
								{
									OFFSET 0.0 0.0 0.0
								}
							}
						}
					}
				}
			}
		}
		JOINT UpperLeg_L
		{
			OFFSET -2.19248 -6.46944 0.0
			CHANNELS 6 Xposition Yposition Zposition Zrotation Xrotation Yrotation 
			JOINT LowerLeg_L
			{
				OFFSET 39.0811 0.0 -1.23785e-05
				CHANNELS 6 Xposition Yposition Zposition Zrotation Xrotation Yrotation 
				JOINT Foot_L
				{
					OFFSET 40.9854 0.0 -1.26872e-05
					CHANNELS 6 Xposition Yposition Zposition Zrotation Xrotation Yrotation 
					JOINT Toes_L
					{
						OFFSET 11.7543 0.0 0.0
						CHANNELS 6 Xposition Yposition Zposition Zrotation Xrotation Yrotation 
						End Site
						{
							OFFSET 0.0 0.0 0.0
						}
					}
				}
			}
		}
		JOINT UpperLeg_R
		{
			OFFSET -2.19251 6.46944 0.0
			CHANNELS 6 Xposition Yposition Zposition Zrotation Xrotation Yrotation 
			JOINT LowerLeg_R
			{
				OFFSET -39.0811 -0.00228153 -0.0401928
				CHANNELS 6 Xposition Yposition Zposition Zrotation Xrotation Yrotation 
				JOINT Foot_R
				{
					OFFSET -40.9854 0.0 0.0
					CHANNELS 6 Xposition Yposition Zposition Zrotation Xrotation Yrotation 
					JOINT Toes_R
					{
						OFFSET -11.7543 0.0 0.0
						CHANNELS 6 Xposition Yposition Zposition Zrotation Xrotation Yrotation 
						End Site
						{
							OFFSET 0.0 0.0 0.0
						}
					}
				}
			}
		}
	}
}
MOTION
Frames:	4
Frame Time:	0.0333333
0.000000 0.000000 0.000000 0.000000 0.000000 -0.000000 -1.065240 90.138300 -5.963600 88.869000 -2.456590 11.277800 15.735700 0.000005 -0.000001 88.596600 75.903000 -89.648700 8.984550 -0.406207 -0.000000 20.414400 -0.789939 -1.968970 16.377300 -0.000001 -0.000001 6.457180 -4.493460 4.421020 6.456720 -0.000001 -0.000000 -13.714500 -2.663690 -1.851840 12.994200 -0.242716 4.980390 -91.117600 5.809480 -79.091000 5.348090 -0.000007 -0.000001 -51.254900 38.062400 -33.973500 24.328600 0.000019 0.000005 7.286750 19.827200 -20.655600 22.291600 -0.000001 0.000005 11.235400 5.212120 2.413600 12.994500 -0.242716 -4.980390 89.444200 3.161680 -80.025100 -5.348130 -0.000001 -0.000004 -31.993400 -21.100900 -71.047900 -24.328900 0.000322 -0.000009 24.028000 -5.941080 -103.071000 -22.291500 -0.000108 -0.000004 42.725600 5.439960 -4.284560 -2.192480 -6.469440 -0.000000 -174.053000 -11.444500 -5.530960 39.081100 -0.000007 -0.000012 -0.186293 0.258330 35.797300 40.985400 -0.000006 -0.000013 0.291830 5.453880 -68.782700 11.754300 -0.000000 0.000003 -0.000086 -0.000907 -16.612500 -2.192510 6.469440 -0.000001 176.509000 19.680400 175.840000 -39.081100 -0.002282 -0.040193 -0.089368 0.132220 35.022400 -40.985400 0.000008 0.000006 6.028260 10.670100 -69.975700 -11.754300 -0.000006 -0.000006 -0.003354 -0.044545 -18.384800
0.000000 0.000000 0.000000 0.000000 0.000000 -0.000000 -1.020070 90.134800 -5.970190 88.890600 -2.426870 11.301300 15.735700 0.000005 -0.000001 88.587300 75.899500 -89.631900 8.984550 -0.406207 -0.000000 20.421200 -0.793832 -1.953270 16.377300 -0.000001 -0.000001 6.444600 -4.505070 4.351080 6.456720 -0.000001 -0.000000 -13.710400 -2.641490 -1.852220 12.994200 -0.242716 4.980390 -91.116700 5.803610 -79.089000 5.348090 -0.000007 -0.000001 -51.289400 38.054700 -33.938700 24.328600 0.000019 0.000005 7.289000 19.987300 -20.516000 22.291600 -0.000001 0.000005 11.190300 5.211150 2.438100 12.994500 -0.242716 -4.980390 89.441100 3.182640 -80.034900 -5.348130 -0.000001 -0.000004 -33.328500 -21.158400 -70.958800 -24.328900 0.000322 -0.000009 24.092800 -5.668960 -102.457000 -22.291500 -0.000108 -0.000004 42.819800 5.425390 -3.781820 -2.192480 -6.469440 -0.000000 -174.110000 -11.460800 -5.518770 39.081100 -0.000007 -0.000012 -0.186109 0.257939 35.811700 40.985400 -0.000006 -0.000013 0.332435 5.442450 -68.793900 11.754300 -0.000000 0.000003 -0.000084 -0.000886 -16.611700 -2.192510 6.469440 -0.000001 176.466000 19.654400 175.834000 -39.081100 -0.002282 -0.040193 -0.086329 0.127698 35.061400 -40.985400 0.000008 0.000006 6.057560 10.595800 -69.988500 -11.754300 -0.000006 -0.000006 -0.003555 -0.046724 -18.473500
0.000000 0.000000 0.000000 0.000000 0.000000 -0.000000 -0.963217 90.130000 -5.977580 88.886600 -2.439120 11.324100 15.735700 0.000005 -0.000001 88.649200 75.901900 -89.675400 8.984550 -0.406207 -0.000000 20.417300 -0.761914 -1.922040 16.377300 -0.000001 -0.000001 6.396180 -4.471640 4.311160 6.456720 -0.000001 -0.000000 -13.642000 -2.633320 -1.850490 12.994200 -0.242716 4.980390 -91.118800 5.800610 -79.063600 5.348090 -0.000007 -0.000001 -51.282600 38.095800 -33.946700 24.328600 0.000019 0.000005 7.253460 19.979500 -20.430200 22.291600 -0.000001 0.000005 11.173400 5.210550 2.453290 12.994500 -0.242716 -4.980390 89.432700 3.227940 -80.026700 -5.348130 -0.000001 -0.000004 -35.103900 -21.446900 -70.741500 -24.328900 0.000322 -0.000009 23.607300 -5.213340 -101.745000 -22.291500 -0.000108 -0.000004 42.939500 5.420320 -3.610000 -2.192480 -6.469440 -0.000000 -174.137000 -11.469100 -5.521660 39.081100 -0.000007 -0.000012 -0.185605 0.256929 35.844700 40.985400 -0.000006 -0.000013 0.375626 5.452610 -68.808400 11.754300 -0.000000 0.000003 -0.000090 -0.000943 -16.613800 -2.192510 6.469440 -0.000001 176.407000 19.689200 175.844000 -39.081100 -0.002282 -0.040193 -0.088680 0.130961 35.079600 -40.985400 0.000008 0.000006 6.010930 10.659900 -69.975900 -11.754300 -0.000006 -0.000006 -0.003400 -0.045052 -18.405400
0.000000 0.000000 0.000000 0.000000 0.000000 -0.000000 -0.895725 90.130900 -5.983070 88.898600 -2.459590 11.364100 15.735700 0.000005 -0.000001 88.627500 75.894400 -89.640600 8.984550 -0.406207 -0.000000 20.432100 -0.771331 -1.893890 16.377300 -0.000001 -0.000001 6.420780 -4.406950 4.221770 6.456720 -0.000001 -0.000000 -13.706400 -2.600810 -1.750920 12.994200 -0.242716 4.980390 -91.127600 5.823800 -79.022500 5.348090 -0.000007 -0.000001 -51.321100 38.038600 -33.873500 24.328600 0.000019 0.000005 7.266180 19.940200 -20.499000 22.291600 -0.000001 0.000005 11.210500 5.211310 2.434070 12.994500 -0.242716 -4.980390 89.422100 3.298490 -80.057600 -5.348130 -0.000001 -0.000004 -37.202500 -21.924900 -70.506100 -24.328900 0.000322 -0.000009 23.330300 -4.762090 -100.896000 -22.291500 -0.000108 -0.000004 42.968400 5.413180 -3.370850 -2.192480 -6.469440 -0.000000 -174.193000 -11.462700 -5.480500 39.081100 -0.000007 -0.000012 -0.186325 0.257931 35.844000 40.985400 -0.000006 -0.000013 0.410617 5.396500 -68.817000 11.754300 -0.000000 0.000003 -0.000090 -0.000936 -16.613600 -2.192510 6.469440 -0.000001 176.325000 19.679200 175.883000 -39.081100 -0.002282 -0.040193 -0.091843 0.135491 35.074200 -40.985400 0.000008 0.000006 5.922250 10.719500 -69.943700 -11.754300 -0.000006 -0.000006 -0.003436 -0.045442 -18.421300
